      <svg
      xmlns="http://www.w3.org/2000/svg"
      xmlns:xlink="http://www.w3.org/1999/xlink"
      viewBox="0 0 120 41"
    >
      <path
        d="M 1.883 27.953 C 1.662 27.953 1.485 27.845 1.349 27.636 C 1.208 27.43 1.137 27.16 1.137 26.824 C 1.137 26.073 1.448 25.695 2.067 25.695 C 2.827 25.695 3.506 25.378 4.103 24.744 C 4.704 24.105 5.18 23.233 5.53 22.132 C 5.885 21.027 6.065 19.797 6.065 18.447 C 6.065 18.13 6.046 17.841 6.009 17.579 C 5.986 17.355 5.943 17.133 5.881 16.917 C 5.726 16.763 5.558 16.511 5.374 16.161 C 5.193 15.801 5.039 15.426 4.914 15.042 C 4.784 14.646 4.72 14.324 4.72 14.081 C 4.923 13.752 5.254 13.494 5.714 13.307 C 6.175 13.121 6.682 13.071 7.235 13.158 C 7.559 13.773 7.826 14.545 8.036 15.471 C 8.556 15.459 9.256 15.348 10.135 15.136 C 10.577 15.033 11.023 14.949 11.471 14.884 C 11.807 14.842 12.1 14.818 12.346 14.818 C 13.279 14.818 14.014 15.173 14.548 15.882 C 15.082 16.591 15.349 17.549 15.349 18.755 L 15.349 22.99 C 15.349 24.005 15.483 24.711 15.754 25.108 C 16.024 25.5 16.417 25.695 16.933 25.695 C 17.177 25.695 17.366 25.803 17.495 26.012 C 17.624 26.225 17.688 26.504 17.688 26.852 C 17.688 27.132 17.615 27.384 17.467 27.608 C 17.32 27.836 17.083 27.953 16.758 27.953 C 15.701 27.953 14.808 27.592 14.078 26.871 C 13.353 26.143 12.991 24.947 12.991 23.279 L 12.991 19.203 C 12.991 18.419 12.904 17.869 12.733 17.551 C 12.561 17.235 12.25 17.076 11.803 17.076 C 11.642 17.076 11.467 17.094 11.278 17.132 C 11.087 17.164 10.749 17.232 10.265 17.337 C 9.417 17.519 8.777 17.624 8.349 17.654 C 8.367 17.934 8.376 18.214 8.376 18.494 C 8.376 20.393 8.105 22.048 7.566 23.466 C 7.032 24.884 6.277 25.989 5.3 26.778 C 4.324 27.561 3.184 27.953 1.883 27.953 Z M 1.883 27.953"
        fill="rgb(255,0,0)"
      />
      <path
        d="M 15.504 27.953 C 15.283 27.953 15.107 27.845 14.97 27.636 C 14.83 27.43 14.758 27.16 14.758 26.824 C 14.758 26.073 15.069 25.695 15.689 25.695 C 16.191 25.695 16.702 25.616 17.218 25.453 C 17.738 25.285 18.346 25 19.041 24.594 C 18.365 23.4 18.029 21.999 18.029 20.387 C 18.029 19.301 18.224 18.342 18.618 17.514 C 19.016 16.681 19.569 16.026 20.276 15.546 C 20.987 15.061 21.795 14.818 22.698 14.818 C 23.458 14.818 24.131 15 24.715 15.36 C 25.304 15.714 25.761 16.208 26.087 16.843 C 26.419 17.472 26.585 18.2 26.585 19.025 C 26.585 20.145 26.258 21.171 25.609 22.104 C 24.964 23.032 23.87 24.035 22.329 25.117 C 22.882 25.523 23.629 25.723 24.568 25.723 C 24.807 25.723 24.994 25.831 25.129 26.04 C 25.27 26.253 25.342 26.532 25.342 26.88 C 25.342 27.211 25.261 27.473 25.102 27.664 C 24.948 27.855 24.727 27.953 24.439 27.953 C 23.603 27.953 22.822 27.813 22.099 27.533 C 21.374 27.253 20.768 26.869 20.285 26.377 C 18.62 27.428 17.026 27.953 15.504 27.953 Z M 20.285 20.182 C 20.285 21.563 20.527 22.668 21.012 23.494 C 22.136 22.706 22.968 21.933 23.508 21.181 C 24.054 20.43 24.328 19.711 24.328 19.025 C 24.328 18.391 24.176 17.897 23.877 17.542 C 23.575 17.183 23.154 17.001 22.615 17.001 C 21.938 17.001 21.381 17.309 20.939 17.924 C 20.501 18.536 20.284 19.287 20.284 20.182 Z M 20.285 20.182"
        fill="rgb(255,0,0)"
      />
      <path
        d="M 25.912 25.695 C 26.501 25.695 27.074 25.404 27.634 24.818 C 28.198 24.228 28.67 23.436 29.052 22.44 C 29.034 22.195 29.025 21.949 29.025 21.703 C 29.025 20.373 29.282 19.191 29.798 18.158 C 30.318 17.12 31.025 16.306 31.917 15.714 C 32.805 15.117 33.823 14.818 34.965 14.818 C 35.573 14.818 36.168 14.937 36.752 15.173 C 37.341 15.41 37.834 15.73 38.235 16.134 L 38.235 5.518 C 38.566 5.394 38.965 5.331 39.432 5.331 C 39.831 5.331 40.22 5.394 40.602 5.518 L 40.602 22.99 C 40.602 24.005 40.733 24.711 40.998 25.108 C 41.267 25.5 41.661 25.695 42.177 25.695 C 42.421 25.695 42.61 25.803 42.739 26.012 C 42.868 26.225 42.933 26.504 42.933 26.852 C 42.933 27.132 42.859 27.384 42.712 27.608 C 42.564 27.836 42.327 27.953 42.002 27.953 C 41.289 27.953 40.639 27.787 40.049 27.458 C 39.465 27.123 39.018 26.598 38.705 25.882 C 38.213 26.52 37.586 27.039 36.872 27.402 C 36.154 27.769 35.364 27.953 34.505 27.953 C 33.496 27.953 32.61 27.732 31.843 27.29 C 31.074 26.842 30.448 26.225 29.964 25.434 C 28.888 27.113 27.477 27.953 25.727 27.953 C 25.506 27.953 25.329 27.845 25.193 27.636 C 25.053 27.43 24.981 27.16 24.981 26.824 C 24.981 26.073 25.292 25.695 25.912 25.695 Z M 31.438 21.703 C 31.438 22.948 31.716 23.923 32.276 24.632 C 32.84 25.341 33.616 25.695 34.606 25.695 C 35.693 25.695 36.568 25.289 37.231 24.473 C 37.899 23.659 38.235 22.587 38.235 21.255 L 38.235 18.652 C 37.884 18.176 37.43 17.787 36.909 17.514 C 36.375 17.223 35.822 17.076 35.251 17.076 C 34.507 17.076 33.851 17.279 33.28 17.682 C 32.708 18.088 32.257 18.634 31.926 19.324 C 31.599 20.014 31.438 20.807 31.438 21.703 Z M 31.438 21.703"
        fill="rgb(255,0,0)"
      />
      <path
        d="M 40.753 27.953 C 40.533 27.953 40.355 27.845 40.22 27.636 C 40.079 27.43 40.008 27.16 40.008 26.824 C 40.008 26.073 40.319 25.695 40.938 25.695 C 41.491 25.695 42.103 25.35 42.78 24.66 C 43.455 23.969 44.245 22.855 45.147 21.311 L 47.92 16.554 C 47.882 16.291 47.863 16.026 47.864 15.76 C 47.864 14.884 48.023 14.238 48.343 13.82 C 48.668 13.398 48.933 13.144 49.136 13.056 C 49.43 12.988 49.746 12.995 50.084 13.074 C 50.42 13.148 50.729 13.277 51.005 13.456 C 51.282 13.631 51.471 13.838 51.577 14.081 C 51.507 14.398 51.378 14.779 51.189 15.219 C 50.998 15.655 50.694 16.241 50.277 16.973 C 50.399 17.167 50.556 17.36 50.747 17.551 C 50.936 17.745 51.171 17.957 51.447 18.186 L 53.418 19.809 C 54.13 20.387 54.662 20.989 55.012 21.609 C 55.366 22.232 55.546 22.929 55.546 23.699 C 55.546 24.627 55.288 25.451 54.772 26.171 C 54.858 26.365 54.901 26.591 54.901 26.852 C 54.901 27.188 54.819 27.456 54.653 27.654 C 54.487 27.852 54.256 27.953 53.962 27.953 C 53.685 27.953 53.418 27.934 53.16 27.897 C 52.874 27.861 52.589 27.82 52.304 27.775 C 51.216 28.042 50.077 28.007 49.007 27.673 C 48.403 27.494 47.775 27.202 47.118 26.796 C 47.081 25.87 47.425 25.189 48.15 24.753 C 49.101 25.383 50.001 25.695 50.849 25.695 C 51.578 25.695 52.159 25.5 52.589 25.108 C 53.018 24.711 53.234 24.208 53.234 23.596 C 53.234 22.827 52.82 22.108 51.99 21.442 L 50.02 19.865 C 49.69 19.599 49.378 19.309 49.089 18.997 L 46.492 23.438 C 45.539 25.068 44.627 26.227 43.757 26.917 C 42.884 27.608 41.882 27.953 40.754 27.953 Z M 40.753 27.953"
        fill="rgb(28,28,28)"
      />
      <path
        d="M 55.442 25.695 C 55.877 25.695 56.374 25.565 56.934 25.304 C 57.498 25.042 58.048 24.599 58.583 23.969 C 59.117 23.335 59.554 22.482 59.899 21.404 C 60.25 20.322 60.424 18.967 60.424 17.337 L 60.424 14.818 L 58.508 14.818 C 58.384 14.539 58.324 14.191 58.324 13.773 C 58.324 13.351 58.384 12.999 58.509 12.719 L 60.425 12.719 L 60.425 8.064 C 60.756 7.94 61.154 7.877 61.622 7.877 C 62.032 7.877 62.428 7.94 62.81 8.064 L 62.81 12.719 L 66.678 12.719 C 66.812 12.998 66.881 13.351 66.881 13.773 C 66.881 14.191 66.812 14.538 66.678 14.817 L 62.81 14.817 L 62.81 20.256 C 62.81 22.01 63.073 23.358 63.603 24.295 C 64.13 25.228 64.878 25.695 65.85 25.695 C 66.347 25.695 66.596 26.082 66.596 26.852 C 66.596 27.187 66.513 27.455 66.347 27.654 C 66.186 27.852 65.96 27.952 65.666 27.952 C 64.542 27.952 63.593 27.628 62.819 26.982 C 62.05 26.336 61.486 25.434 61.124 24.277 C 60.399 25.541 59.508 26.469 58.454 27.066 C 57.397 27.656 56.331 27.952 55.257 27.952 C 55.036 27.952 54.859 27.843 54.723 27.626 C 54.583 27.409 54.511 27.141 54.511 26.824 C 54.511 26.495 54.589 26.224 54.742 26.012 C 54.896 25.802 55.129 25.695 55.442 25.695 Z M 55.442 25.695"
        fill="rgb(28,28,28)"
      />
      <path
        d="M 64.416 27.953 C 64.195 27.953 64.018 27.845 63.882 27.636 C 63.742 27.43 63.67 27.16 63.67 26.824 C 63.67 26.073 63.981 25.695 64.6 25.695 C 65.36 25.695 66.039 25.378 66.636 24.744 C 67.237 24.105 67.713 23.233 68.064 22.132 C 68.418 21.027 68.598 19.797 68.598 18.447 C 68.598 18.13 68.579 17.841 68.542 17.579 C 68.519 17.355 68.476 17.133 68.414 16.917 C 68.259 16.763 68.091 16.511 67.907 16.161 C 67.726 15.801 67.572 15.426 67.447 15.042 C 67.317 14.646 67.253 14.324 67.253 14.081 C 67.456 13.752 67.787 13.494 68.248 13.307 C 68.709 13.121 69.215 13.071 69.768 13.158 C 70.092 13.773 70.359 14.545 70.569 15.471 C 71.089 15.459 71.789 15.348 72.669 15.136 C 73.11 15.033 73.556 14.949 74.004 14.884 C 74.34 14.842 74.633 14.818 74.879 14.818 C 75.812 14.818 76.547 15.173 77.081 15.882 C 77.615 16.591 77.882 17.549 77.882 18.755 L 77.882 22.99 C 77.882 24.005 78.016 24.711 78.287 25.108 C 78.557 25.5 78.951 25.695 79.466 25.695 C 79.71 25.695 79.899 25.803 80.028 26.012 C 80.157 26.225 80.222 26.504 80.222 26.852 C 80.222 27.132 80.148 27.384 80 27.608 C 79.853 27.836 79.616 27.953 79.291 27.953 C 78.234 27.953 77.341 27.592 76.611 26.871 C 75.886 26.143 75.524 24.947 75.524 23.279 L 75.524 19.203 C 75.524 18.419 75.437 17.869 75.266 17.551 C 75.094 17.235 74.783 17.076 74.336 17.076 C 74.175 17.076 74 17.094 73.811 17.132 C 73.62 17.164 73.282 17.232 72.798 17.337 C 71.951 17.519 71.31 17.624 70.882 17.654 C 70.9 17.934 70.91 18.214 70.91 18.494 C 70.91 20.393 70.638 22.048 70.099 23.466 C 69.565 24.884 68.81 25.989 67.833 26.778 C 66.857 27.561 65.717 27.953 64.416 27.953 Z M 64.416 27.953"
        fill="rgb(28,28,28)"
      />
      <path
        d="M 78.222 25.695 C 78.583 25.695 78.972 25.584 79.392 25.36 C 79.808 25.131 80.197 24.779 80.562 24.305 C 80.99 23.708 81.303 23.025 81.501 22.253 C 81.703 21.483 81.828 20.702 81.879 19.912 L 81.879 15.182 C 82.057 15.129 82.238 15.089 82.422 15.061 C 82.638 15.023 82.857 15.004 83.076 15.005 C 83.474 15.005 83.863 15.065 84.246 15.182 L 84.246 22.757 C 84.246 23.685 84.386 24.406 84.669 24.921 C 84.957 25.439 85.438 25.695 86.115 25.695 C 86.403 25.695 86.598 25.821 86.705 26.068 C 86.808 26.311 86.861 26.572 86.861 26.852 C 86.861 27.132 86.788 27.384 86.64 27.608 C 86.493 27.836 86.256 27.953 85.931 27.953 C 84.13 27.953 82.966 27.095 82.431 25.378 C 82.211 25.75 81.948 26.095 81.648 26.405 C 81.18 26.878 80.631 27.26 80.027 27.533 C 79.401 27.815 78.723 27.958 78.038 27.953 C 77.798 27.953 77.614 27.834 77.485 27.599 C 77.356 27.362 77.289 27.095 77.292 26.824 C 77.292 26.526 77.366 26.264 77.513 26.04 C 77.66 25.812 77.897 25.695 78.222 25.695 Z M 83.131 10.742 C 82.661 10.748 82.208 10.56 81.879 10.219 C 81.541 9.89 81.354 9.434 81.363 8.959 C 81.363 8.452 81.531 8.024 81.87 7.682 C 82.206 7.341 82.627 7.168 83.131 7.168 C 83.629 7.168 84.045 7.341 84.384 7.682 C 84.72 8.024 84.891 8.452 84.891 8.959 C 84.898 9.432 84.715 9.886 84.384 10.219 C 84.045 10.569 83.629 10.742 83.131 10.742 Z M 83.131 10.742"
        fill="rgb(28,28,28)"
      />
    <path
        d="M 84.68 27.953 C 84.459 27.953 84.281 27.845 84.146 27.636 C 84.005 27.43 83.933 27.16 83.933 26.824 C 83.933 26.073 84.245 25.695 84.864 25.695 C 85.417 25.695 85.913 25.413 86.356 24.846 C 86.798 24.275 87.185 23.324 87.517 21.992 L 88.29 18.914 C 89.014 16.185 90.399 14.818 92.444 14.818 C 93.222 14.818 93.881 15.051 94.415 15.518 C 94.95 15.98 95.32 16.604 95.53 17.392 C 96.013 16.572 96.638 15.937 97.399 15.49 C 98.16 15.042 99.007 14.818 99.942 14.818 C 101.291 14.818 102.332 15.266 103.064 16.161 C 103.801 17.052 104.169 18.302 104.169 19.912 L 104.169 22.99 C 104.169 24.005 104.3 24.711 104.565 25.108 C 104.834 25.5 105.231 25.695 105.753 25.695 C 105.993 25.695 106.177 25.803 106.306 26.012 C 106.44 26.225 106.509 26.504 106.509 26.852 C 106.509 27.132 106.435 27.384 106.287 27.608 C 106.14 27.836 105.901 27.953 105.569 27.953 C 104.513 27.953 103.621 27.592 102.898 26.871 C 102.173 26.143 101.812 24.947 101.812 23.279 L 101.812 19.912 C 101.812 18.022 101.075 17.076 99.601 17.076 C 98.839 17.076 98.169 17.383 97.593 17.999 C 97.015 18.61 96.564 19.459 96.239 20.546 C 95.919 21.635 95.76 22.897 95.76 24.334 L 95.76 27.589 C 95.572 27.642 95.381 27.686 95.189 27.72 C 94.994 27.756 94.797 27.775 94.599 27.775 C 94.202 27.779 93.807 27.716 93.43 27.589 L 93.43 19.203 C 93.43 17.785 93.029 17.076 92.233 17.076 C 91.868 17.076 91.56 17.243 91.302 17.579 C 91.044 17.911 90.818 18.445 90.63 19.184 L 89.663 22.962 C 89.213 24.697 88.59 25.963 87.793 26.759 C 87.001 27.556 85.962 27.953 84.68 27.953 Z M 84.68 27.953"
        fill="rgb(28,28,28)"
      />
      <path
        d="M 104.505 25.695 C 105.094 25.695 105.668 25.404 106.227 24.818 C 106.791 24.228 107.264 23.436 107.646 22.44 C 107.627 22.195 107.618 21.949 107.618 21.703 C 107.618 20.373 107.876 19.191 108.392 18.158 C 108.912 17.12 109.619 16.306 110.51 15.714 C 111.399 15.117 112.417 14.818 113.559 14.818 C 114.167 14.818 114.761 14.937 115.346 15.173 C 115.935 15.41 116.428 15.73 116.828 16.134 L 116.828 15.051 C 117.007 14.999 117.188 14.958 117.372 14.93 C 117.588 14.892 117.807 14.873 118.026 14.874 C 118.436 14.874 118.827 14.935 119.196 15.051 L 119.196 34.79 C 119.196 36.929 118.827 38.515 118.09 39.549 C 117.354 40.579 116.17 41.097 114.544 41.097 C 113.333 41.097 112.338 40.67 111.56 39.819 C 110.786 38.972 110.4 37.855 110.4 36.47 C 110.4 33.247 112.585 30.234 116.958 27.431 L 116.958 26.273 C 116.475 26.8 115.892 27.222 115.245 27.514 C 114.586 27.805 113.872 27.952 113.099 27.952 C 112.09 27.952 111.203 27.731 110.437 27.289 C 109.666 26.841 109.02 26.203 108.558 25.434 C 107.482 27.113 106.071 27.952 104.321 27.952 C 104.1 27.952 103.922 27.845 103.786 27.635 C 103.646 27.43 103.574 27.159 103.574 26.823 C 103.574 26.073 103.885 25.695 104.505 25.695 Z M 110.031 21.703 C 110.031 22.948 110.31 23.923 110.869 24.632 C 111.434 25.341 112.209 25.695 113.2 25.695 C 114.287 25.695 115.161 25.289 115.825 24.473 C 116.492 23.659 116.828 22.587 116.828 21.255 L 116.828 18.652 C 116.477 18.176 116.024 17.787 115.502 17.514 C 114.968 17.223 114.416 17.076 113.845 17.076 C 113.101 17.076 112.445 17.279 111.873 17.682 C 111.302 18.088 110.851 18.634 110.519 19.324 C 110.192 20.014 110.031 20.807 110.031 21.703 Z M 112.684 36.367 C 112.684 37.155 112.855 37.771 113.2 38.214 C 113.543 38.662 114.019 38.886 114.627 38.886 C 115.438 38.886 116.027 38.541 116.396 37.85 C 116.769 37.16 116.958 36.139 116.958 34.79 L 116.958 30.136 C 114.107 32.17 112.684 34.245 112.684 36.367 Z M 112.684 36.367"
        fill="rgb(28,28,28)"
      />
      <g transform="translate(80.759 6.273)" id="ss104684920_10">
        <path
          d="M 0 0 L 4.421 0 L 4.421 4.478 L 0 4.478 Z M 0 0"
          fill="transparent"
        />
        <path
          d="M 2.314 0 C 3.592 0 4.629 1.049 4.629 2.344 C 4.629 3.638 3.592 4.688 2.314 4.688 C 1.036 4.688 0 3.638 0 2.344 C 0 1.049 1.036 0 2.314 0 Z M 2.314 0"
          fill="rgb(255,0,0)"
        />
      </g>
    </svg>